<?xml version="1.0" encoding="iso-8859-1"?>
<!-- Uploaded to: SVG Repo, www.svgrepo.com, Generator: SVG Repo Mixer Tools -->
<svg fill="#000000" height="800px" width="800px" version="1.1" id="Layer_1" xmlns="http://www.w3.org/2000/svg" xmlns:xlink="http://www.w3.org/1999/xlink" 
	 viewBox="0 0 496 496" xml:space="preserve">
<g>
	<g>
		<g>
			<path d="M64,408c13.232,0,24-10.768,24-24s-10.768-24-24-24s-24,10.768-24,24S50.768,408,64,408z M64,376c4.416,0,8,3.584,8,8
				c0,4.416-3.584,8-8,8s-8-3.584-8-8C56,379.584,59.584,376,64,376z"/>
			<path d="M432,408c13.232,0,24-10.768,24-24s-10.768-24-24-24s-24,10.768-24,24S418.768,408,432,408z M432,376
				c4.416,0,8,3.584,8,8c0,4.416-3.584,8-8,8c-4.416,0-8-3.584-8-8C424,379.584,427.584,376,432,376z"/>
			<path d="M128,408h240v-16h16v-16h-16v-16H128v16h-16v16h16V408z M336,376h16v16h-16V376z M304,376h16v16h-16V376z M272,376h16v16
				h-16V376z M240,376h16v16h-16V376z M208,376h16v16h-16V376z M176,376h16v16h-16V376z M144,376h16v16h-16V376z"/>
			<polygon points="128,304 144,304 144,320 160,320 160,304 176,304 176,320 192,320 192,304 208,304 208,320 224,320 224,304 
				240,304 240,320 256,320 256,304 272,304 272,320 288,320 288,304 304,304 304,320 320,320 320,304 336,304 336,320 352,320 
				352,304 368,304 368,288 128,288 			"/>
			<path d="M480,128h-21.136l-15.912-71.616C435.568,23.184,406.672,0,372.664,0H123.336C89.328,0,60.432,23.184,53.048,56.384
				L37.136,128H16c-8.824,0-16,7.176-16,16v32c0,8.824,7.176,16,16,16h6.912l-5.96,26.832c-0.632,2.856-0.952,5.776-0.952,8.68V408
				c0,10.416,6.712,19.216,16,22.528V472c0,13.232,10.768,24,24,24h32c13.232,0,24-10.768,24-24v-40h272v40
				c0,13.232,10.768,24,24,24h32c13.232,0,24-10.768,24-24v-41.472c9.288-3.312,16-12.112,16-22.528V227.512
				c0-2.904-0.32-5.832-0.952-8.68L473.088,192H480c8.824,0,16-7.176,16-16v-32C496,135.176,488.824,128,480,128z M68.672,59.848
				C74.408,34.032,96.888,16,123.336,16h249.328c26.448,0,48.928,18.032,54.664,43.848L431.808,80H64.192L68.672,59.848z M60.64,96
				h374.72l24.888,112H35.76L60.64,96z M26.464,176H16v-32h17.576L26.464,176z M88,304H32v-32h56V304z M91.056,320l8,16H32v-16
				H91.056z M96,472c0,4.416-3.584,8-8,8h-8v-16H64v16h-8c-4.416,0-8-3.584-8-8v-40h16v16h16v-16h16V472z M448,472
				c0,4.416-3.584,8-8,8h-8v-16h-16v16h-8c-4.416,0-8-3.584-8-8v-40h16v16h16v-16h16V472z M464,408c0,4.416-3.584,8-8,8H40
				c-4.416,0-8-3.584-8-8v-56h432V408z M104,310.112V272h288v38.112L379.056,336H116.944L104,310.112z M464,336h-67.056l8-16H464
				V336z M464,304h-56v-32h56V304z M464,256H32v-28.488c0-1.168,0.216-2.344,0.392-3.512h431.216
				c0.176,1.168,0.392,2.344,0.392,3.512V256z M480,176h-10.472l-7.112-32H480V176z"/>
		</g>
	</g>
</g>
</svg>